<svg xmlns="http://www.w3.org/2000/svg" viewBox="0 0 2560 1086"><rect width="2560" height="1086" fill="#f4ead9"/><line x1="-200" y1="-200" x2="2760" y2="700" stroke="#8a5c13" stroke-width="10" stroke-opacity="0.35"/><line x1="-200" y1="100" x2="2760" y2="1300" stroke="#241d16" stroke-width="6" stroke-opacity="0.35"/><line x1="-200" y1="500" x2="2760" y2="1700" stroke="#8a5c13" stroke-width="10" stroke-opacity="0.35"/><rect x="-123" y="66.53125" width="46" height="46" fill="#b97d1c" fill-opacity="0.9" transform="rotate(45 -100 89.53125)"/><rect x="145" y="153.75" width="30" height="30" fill="#8a5c13" fill-opacity="0.9" transform="rotate(45 160 168.75)"/><rect x="405" y="232.96875" width="30" height="30" fill="#b97d1c" fill-opacity="0.9" transform="rotate(45 420 247.96875)"/><rect x="657" y="304.1875" width="46" height="46" fill="#8a5c13" fill-opacity="0.9" transform="rotate(45 680 327.1875)"/><rect x="925" y="391.40625" width="30" height="30" fill="#b97d1c" fill-opacity="0.9" transform="rotate(45 940 406.40625)"/><rect x="1185" y="470.625" width="30" height="30" fill="#8a5c13" fill-opacity="0.9" transform="rotate(45 1200 485.625)"/><rect x="1437" y="541.84375" width="46" height="46" fill="#b97d1c" fill-opacity="0.9" transform="rotate(45 1460 564.84375)"/><rect x="1705" y="629.0625" width="30" height="30" fill="#8a5c13" fill-opacity="0.9" transform="rotate(45 1720 644.0625)"/><rect x="1965" y="708.28125" width="30" height="30" fill="#b97d1c" fill-opacity="0.9" transform="rotate(45 1980 723.28125)"/><rect x="2217" y="779.5" width="46" height="46" fill="#8a5c13" fill-opacity="0.9" transform="rotate(45 2240 802.5)"/><rect x="2485" y="866.71875" width="30" height="30" fill="#b97d1c" fill-opacity="0.9" transform="rotate(45 2500 881.71875)"/><circle cx="180" cy="860" r="7" fill="#241d16" fill-opacity="0.55"/><circle cx="420" cy="240" r="7" fill="#241d16" fill-opacity="0.55"/><circle cx="760" cy="640" r="7" fill="#241d16" fill-opacity="0.55"/><circle cx="1040" cy="940" r="7" fill="#241d16" fill-opacity="0.55"/><circle cx="1320" cy="180" r="7" fill="#241d16" fill-opacity="0.55"/><circle cx="1580" cy="520" r="7" fill="#241d16" fill-opacity="0.55"/><circle cx="1860" cy="860" r="7" fill="#241d16" fill-opacity="0.55"/><circle cx="2120" cy="260" r="7" fill="#241d16" fill-opacity="0.55"/><circle cx="2360" cy="660" r="7" fill="#241d16" fill-opacity="0.55"/><circle cx="300" cy="480" r="7" fill="#241d16" fill-opacity="0.55"/><circle cx="980" cy="340" r="7" fill="#241d16" fill-opacity="0.55"/><circle cx="1740" cy="940" r="7" fill="#241d16" fill-opacity="0.55"/><circle cx="2260" cy="480" r="7" fill="#241d16" fill-opacity="0.55"/><circle cx="140" cy="140" r="70" fill="none" stroke="#b97d1c" stroke-width="4" stroke-opacity="0.4"/><circle cx="140" cy="140" r="34" fill="none" stroke="#8a5c13" stroke-width="3" stroke-opacity="0.4"/><circle cx="2420" cy="140" r="70" fill="none" stroke="#b97d1c" stroke-width="4" stroke-opacity="0.4"/><circle cx="2420" cy="140" r="34" fill="none" stroke="#8a5c13" stroke-width="3" stroke-opacity="0.4"/><circle cx="140" cy="946" r="70" fill="none" stroke="#b97d1c" stroke-width="4" stroke-opacity="0.4"/><circle cx="140" cy="946" r="34" fill="none" stroke="#8a5c13" stroke-width="3" stroke-opacity="0.4"/><circle cx="2420" cy="946" r="70" fill="none" stroke="#b97d1c" stroke-width="4" stroke-opacity="0.4"/><circle cx="2420" cy="946" r="34" fill="none" stroke="#8a5c13" stroke-width="3" stroke-opacity="0.4"/></svg>